<svg xmlns="http://www.w3.org/2000/svg" xmlns:xlink="http://www.w3.org/1999/xlink" contentStyleType="text/css" height="1629px" preserveAspectRatio="none" style="width:904px;height:1629px;background:#FFFFFF;" version="1.1" viewBox="0 0 904 1629" width="904px" zoomAndPan="magnify"><defs/><g><!--cluster adaptio-core--><g id="cluster_adaptio-core"><rect fill="none" height="407" rx="2.5" ry="2.5" style="stroke:#181818;stroke-width:1.0;" width="215" x="7" y="195"/><rect fill="none" height="10" style="stroke:#181818;stroke-width:1.0;" width="15" x="202" y="200"/><rect fill="none" height="2" style="stroke:#181818;stroke-width:1.0;" width="4" x="200" y="202"/><rect fill="none" height="2" style="stroke:#181818;stroke-width:1.0;" width="4" x="200" y="206"/><text fill="#000000" font-family="sans-serif" font-size="14" font-weight="bold" lengthAdjust="spacing" textLength="100.1738" x="64.4131" y="220.9951">adaptio-core</text></g><!--cluster core--><g id="cluster_core"><rect fill="none" height="340" rx="2.5" ry="2.5" style="stroke:#181818;stroke-width:1.0;" width="167" x="31" y="238"/><rect fill="none" height="10" style="stroke:#181818;stroke-width:1.0;" width="15" x="178" y="243"/><rect fill="none" height="2" style="stroke:#181818;stroke-width:1.0;" width="4" x="176" y="245"/><rect fill="none" height="2" style="stroke:#181818;stroke-width:1.0;" width="4" x="176" y="249"/><text fill="#000000" font-family="sans-serif" font-size="14" font-weight="bold" lengthAdjust="spacing" textLength="34.3164" x="97.3418" y="263.9951">core</text></g><!--cluster common--><g id="cluster_common"><rect fill="none" height="164" rx="2.5" ry="2.5" style="stroke:#181818;stroke-width:1.0;" width="159" x="35" y="7"/><rect fill="none" height="10" style="stroke:#181818;stroke-width:1.0;" width="15" x="174" y="12"/><rect fill="none" height="2" style="stroke:#181818;stroke-width:1.0;" width="4" x="172" y="14"/><rect fill="none" height="2" style="stroke:#181818;stroke-width:1.0;" width="4" x="172" y="18"/><text fill="#000000" font-family="sans-serif" font-size="14" font-weight="bold" lengthAdjust="spacing" textLength="66.6777" x="81.1611" y="32.9951">common</text></g><!--cluster common::logging--><g id="cluster_common::logging"><rect fill="none" height="97" rx="2.5" ry="2.5" style="stroke:#181818;stroke-width:1.0;" width="111" x="59" y="50"/><rect fill="none" height="10" style="stroke:#181818;stroke-width:1.0;" width="15" x="150" y="55"/><rect fill="none" height="2" style="stroke:#181818;stroke-width:1.0;" width="4" x="148" y="57"/><rect fill="none" height="2" style="stroke:#181818;stroke-width:1.0;" width="4" x="148" y="61"/><text fill="#000000" font-family="sans-serif" font-size="14" font-weight="bold" lengthAdjust="spacing" textLength="59.2471" x="84.8765" y="75.9951">logging</text></g><!--cluster components--><g id="cluster_components"><rect fill="none" height="353" rx="2.5" ry="2.5" style="stroke:#181818;stroke-width:1.0;" width="652" x="246" y="806"/><rect fill="none" height="10" style="stroke:#181818;stroke-width:1.0;" width="15" x="878" y="811"/><rect fill="none" height="2" style="stroke:#181818;stroke-width:1.0;" width="4" x="876" y="813"/><rect fill="none" height="2" style="stroke:#181818;stroke-width:1.0;" width="4" x="876" y="817"/><text fill="#000000" font-family="sans-serif" font-size="14" font-weight="bold" lengthAdjust="spacing" textLength="96.5986" x="523.7007" y="831.9951">components</text></g><!--cluster components::scanner--><g id="cluster_components::scanner"><rect fill="none" height="213" rx="2.5" ry="2.5" style="stroke:#181818;stroke-width:1.0;" width="134" x="278" y="857"/><rect fill="none" height="10" style="stroke:#181818;stroke-width:1.0;" width="15" x="392" y="862"/><rect fill="none" height="2" style="stroke:#181818;stroke-width:1.0;" width="4" x="390" y="864"/><rect fill="none" height="2" style="stroke:#181818;stroke-width:1.0;" width="4" x="390" y="868"/><text fill="#000000" font-family="sans-serif" font-size="14" font-weight="bold" lengthAdjust="spacing" textLength="62.4121" x="313.7939" y="882.9951">scanner</text></g><!--cluster components::recipe--><g id="cluster_components::recipe"><rect fill="none" height="132" rx="2.5" ry="2.5" style="stroke:#181818;stroke-width:1.0;" width="118" x="748" y="995"/><rect fill="none" height="10" style="stroke:#181818;stroke-width:1.0;" width="15" x="846" y="1000"/><rect fill="none" height="2" style="stroke:#181818;stroke-width:1.0;" width="4" x="844" y="1002"/><rect fill="none" height="2" style="stroke:#181818;stroke-width:1.0;" width="4" x="844" y="1006"/><text fill="#000000" font-family="sans-serif" font-size="14" font-weight="bold" lengthAdjust="spacing" textLength="49.0137" x="782.4932" y="1020.9951">recipe</text></g><!--cluster controller--><g id="cluster_controller"><rect fill="none" height="294" rx="2.5" ry="2.5" style="stroke:#181818;stroke-width:1.0;" width="161" x="264.5" y="480"/><rect fill="none" height="10" style="stroke:#181818;stroke-width:1.0;" width="15" x="405.5" y="485"/><rect fill="none" height="2" style="stroke:#181818;stroke-width:1.0;" width="4" x="403.5" y="487"/><rect fill="none" height="2" style="stroke:#181818;stroke-width:1.0;" width="4" x="403.5" y="491"/><text fill="#000000" font-family="sans-serif" font-size="14" font-weight="bold" lengthAdjust="spacing" textLength="77.0957" x="306.4521" y="505.9951">controller</text></g><!--cluster slice_translator--><g id="cluster_slice_translator"><rect fill="none" height="132" rx="2.5" ry="2.5" style="stroke:#181818;stroke-width:1.0;" width="162" x="264" y="1392"/><rect fill="none" height="10" style="stroke:#181818;stroke-width:1.0;" width="15" x="406" y="1397"/><rect fill="none" height="2" style="stroke:#181818;stroke-width:1.0;" width="4" x="404" y="1399"/><rect fill="none" height="2" style="stroke:#181818;stroke-width:1.0;" width="4" x="404" y="1403"/><text fill="#000000" font-family="sans-serif" font-size="14" font-weight="bold" lengthAdjust="spacing" textLength="121.5293" x="284.2354" y="1417.9951">slice_translator</text></g><!--cluster weld--><g id="cluster_weld"><rect fill="none" height="401" rx="2.5" ry="2.5" style="stroke:#181818;stroke-width:1.0;" width="242" x="466" y="1191"/><rect fill="none" height="10" style="stroke:#181818;stroke-width:1.0;" width="15" x="688" y="1196"/><rect fill="none" height="2" style="stroke:#181818;stroke-width:1.0;" width="4" x="686" y="1198"/><rect fill="none" height="2" style="stroke:#181818;stroke-width:1.0;" width="4" x="686" y="1202"/><text fill="#000000" font-family="sans-serif" font-size="14" font-weight="bold" lengthAdjust="spacing" textLength="37.249" x="568.3755" y="1216.9951">weld</text></g><!--cluster weld::sequence--><g id="cluster_weld::sequence"><rect fill="none" height="294" rx="2.5" ry="2.5" style="stroke:#181818;stroke-width:1.0;" width="162" x="506" y="1250"/><rect fill="none" height="10" style="stroke:#181818;stroke-width:1.0;" width="15" x="648" y="1255"/><rect fill="none" height="2" style="stroke:#181818;stroke-width:1.0;" width="4" x="646" y="1257"/><rect fill="none" height="2" style="stroke:#181818;stroke-width:1.0;" width="4" x="646" y="1261"/><text fill="#000000" font-family="sans-serif" font-size="14" font-weight="bold" lengthAdjust="spacing" textLength="75.0723" x="549.4639" y="1275.9951">sequence</text></g><!--cluster zevs--><g id="cluster_zevs"><rect fill="none" height="132" rx="2.5" ry="2.5" style="stroke:#181818;stroke-width:1.0;" width="143" x="43" y="938"/><rect fill="none" height="10" style="stroke:#181818;stroke-width:1.0;" width="15" x="166" y="943"/><rect fill="none" height="2" style="stroke:#181818;stroke-width:1.0;" width="4" x="164" y="945"/><rect fill="none" height="2" style="stroke:#181818;stroke-width:1.0;" width="4" x="164" y="949"/><text fill="#000000" font-family="sans-serif" font-size="14" font-weight="bold" lengthAdjust="spacing" textLength="35.1025" x="96.9487" y="963.9951">zevs</text></g><!--entity common::data--><g id="elem_common::data"><rect fill="#F1F1F1" height="46.2969" rx="2.5" ry="2.5" style="stroke:#181818;stroke-width:0.5;" width="71.5342" x="78.5" y="273"/><rect fill="#F1F1F1" height="10" style="stroke:#181818;stroke-width:0.5;" width="15" x="130.0342" y="278"/><rect fill="#F1F1F1" height="2" style="stroke:#181818;stroke-width:0.5;" width="4" x="128.0342" y="280"/><rect fill="#F1F1F1" height="2" style="stroke:#181818;stroke-width:0.5;" width="4" x="128.0342" y="284"/><text fill="#000000" font-family="sans-serif" font-size="14" lengthAdjust="spacing" textLength="31.5342" x="93.5" y="305.9951">data</text></g><!--entity common::file--><g id="elem_common::file"><rect fill="#F1F1F1" height="46.2969" rx="2.5" ry="2.5" style="stroke:#181818;stroke-width:0.5;" width="61.3213" x="84" y="354"/><rect fill="#F1F1F1" height="10" style="stroke:#181818;stroke-width:0.5;" width="15" x="125.3213" y="359"/><rect fill="#F1F1F1" height="2" style="stroke:#181818;stroke-width:0.5;" width="4" x="123.3213" y="361"/><rect fill="#F1F1F1" height="2" style="stroke:#181818;stroke-width:0.5;" width="4" x="123.3213" y="365"/><text fill="#000000" font-family="sans-serif" font-size="14" lengthAdjust="spacing" textLength="21.3213" x="99" y="386.9951">file</text></g><!--entity common::joint_tracking--><g id="elem_common::joint_tracking"><rect fill="#F1F1F1" height="46.2969" rx="2.5" ry="2.5" style="stroke:#181818;stroke-width:0.5;" width="134.9854" x="47" y="516"/><rect fill="#F1F1F1" height="10" style="stroke:#181818;stroke-width:0.5;" width="15" x="161.9854" y="521"/><rect fill="#F1F1F1" height="2" style="stroke:#181818;stroke-width:0.5;" width="4" x="159.9854" y="523"/><rect fill="#F1F1F1" height="2" style="stroke:#181818;stroke-width:0.5;" width="4" x="159.9854" y="527"/><text fill="#000000" font-family="sans-serif" font-size="14" lengthAdjust="spacing" textLength="94.9854" x="62" y="548.9951">joint_tracking</text></g><!--entity common::scanner--><g id="elem_common::scanner"><rect fill="#F1F1F1" height="46.2969" rx="2.5" ry="2.5" style="stroke:#181818;stroke-width:0.5;" width="95.6855" x="66.5" y="435"/><rect fill="#F1F1F1" height="10" style="stroke:#181818;stroke-width:0.5;" width="15" x="142.1855" y="440"/><rect fill="#F1F1F1" height="2" style="stroke:#181818;stroke-width:0.5;" width="4" x="140.1855" y="442"/><rect fill="#F1F1F1" height="2" style="stroke:#181818;stroke-width:0.5;" width="4" x="140.1855" y="446"/><text fill="#000000" font-family="sans-serif" font-size="14" lengthAdjust="spacing" textLength="55.6855" x="81.5" y="467.9951">scanner</text></g><!--entity common::logging::quest--><g id="elem_common::logging::quest"><rect fill="#F1F1F1" height="46.2969" rx="2.5" ry="2.5" style="stroke:#181818;stroke-width:0.5;" width="79.1563" x="75" y="85"/><rect fill="#F1F1F1" height="10" style="stroke:#181818;stroke-width:0.5;" width="15" x="134.1563" y="90"/><rect fill="#F1F1F1" height="2" style="stroke:#181818;stroke-width:0.5;" width="4" x="132.1563" y="92"/><rect fill="#F1F1F1" height="2" style="stroke:#181818;stroke-width:0.5;" width="4" x="132.1563" y="96"/><text fill="#000000" font-family="sans-serif" font-size="14" lengthAdjust="spacing" textLength="39.1563" x="90" y="117.9951">quest</text></g><!--entity configuration--><g id="elem_configuration"><rect fill="#F1F1F1" height="46.2969" rx="2.5" ry="2.5" style="stroke:#181818;stroke-width:0.5;" width="132.8662" x="520.5" y="841"/><rect fill="#F1F1F1" height="10" style="stroke:#181818;stroke-width:0.5;" width="15" x="633.3662" y="846"/><rect fill="#F1F1F1" height="2" style="stroke:#181818;stroke-width:0.5;" width="4" x="631.3662" y="848"/><rect fill="#F1F1F1" height="2" style="stroke:#181818;stroke-width:0.5;" width="4" x="631.3662" y="852"/><text fill="#000000" font-family="sans-serif" font-size="14" lengthAdjust="spacing" textLength="92.8662" x="535.5" y="873.9951">configuration</text></g><!--entity components::kinematics--><g id="elem_components::kinematics"><rect fill="#F1F1F1" height="46.2969" rx="2.5" ry="2.5" style="stroke:#181818;stroke-width:0.5;" width="116.0703" x="287" y="1097"/><rect fill="#F1F1F1" height="10" style="stroke:#181818;stroke-width:0.5;" width="15" x="383.0703" y="1102"/><rect fill="#F1F1F1" height="2" style="stroke:#181818;stroke-width:0.5;" width="4" x="381.0703" y="1104"/><rect fill="#F1F1F1" height="2" style="stroke:#181818;stroke-width:0.5;" width="4" x="381.0703" y="1108"/><text fill="#000000" font-family="sans-serif" font-size="14" lengthAdjust="spacing" textLength="76.0703" x="302" y="1129.9951">kinematics</text></g><!--entity components::scanner::input--><g id="elem_components::scanner::input"><rect fill="#F1F1F1" height="46.2969" rx="2.5" ry="2.5" style="stroke:#181818;stroke-width:0.5;" width="76.0117" x="307" y="900"/><rect fill="#F1F1F1" height="10" style="stroke:#181818;stroke-width:0.5;" width="15" x="363.0117" y="905"/><rect fill="#F1F1F1" height="2" style="stroke:#181818;stroke-width:0.5;" width="4" x="361.0117" y="907"/><rect fill="#F1F1F1" height="2" style="stroke:#181818;stroke-width:0.5;" width="4" x="361.0117" y="911"/><text fill="#000000" font-family="sans-serif" font-size="14" lengthAdjust="spacing" textLength="36.0117" x="322" y="932.9951">input</text></g><!--entity components::scanner::output--><g id="elem_components::scanner::output"><rect fill="#F1F1F1" height="46.2969" rx="2.5" ry="2.5" style="stroke:#181818;stroke-width:0.5;" width="86.1768" x="302" y="981"/><rect fill="#F1F1F1" height="10" style="stroke:#181818;stroke-width:0.5;" width="15" x="368.1768" y="986"/><rect fill="#F1F1F1" height="2" style="stroke:#181818;stroke-width:0.5;" width="4" x="366.1768" y="988"/><rect fill="#F1F1F1" height="2" style="stroke:#181818;stroke-width:0.5;" width="4" x="366.1768" y="992"/><text fill="#000000" font-family="sans-serif" font-size="14" lengthAdjust="spacing" textLength="46.1768" x="317" y="1013.9951">output</text></g><!--entity components::recipe::msg--><g id="elem_components::recipe::msg"><rect fill="#F1F1F1" height="46.2969" rx="2.5" ry="2.5" style="stroke:#181818;stroke-width:0.5;" width="69.8184" x="772" y="1038"/><rect fill="#F1F1F1" height="10" style="stroke:#181818;stroke-width:0.5;" width="15" x="821.8184" y="1043"/><rect fill="#F1F1F1" height="2" style="stroke:#181818;stroke-width:0.5;" width="4" x="819.8184" y="1045"/><rect fill="#F1F1F1" height="2" style="stroke:#181818;stroke-width:0.5;" width="4" x="819.8184" y="1049"/><text fill="#000000" font-family="sans-serif" font-size="14" lengthAdjust="spacing" textLength="29.8184" x="787" y="1070.9951">msg</text></g><!--entity controller::systems--><g id="elem_controller::systems"><rect fill="#F1F1F1" height="46.2969" rx="2.5" ry="2.5" style="stroke:#181818;stroke-width:0.5;" width="97.9072" x="296" y="523"/><rect fill="#F1F1F1" height="10" style="stroke:#181818;stroke-width:0.5;" width="15" x="373.9072" y="528"/><rect fill="#F1F1F1" height="2" style="stroke:#181818;stroke-width:0.5;" width="4" x="371.9072" y="530"/><rect fill="#F1F1F1" height="2" style="stroke:#181818;stroke-width:0.5;" width="4" x="371.9072" y="534"/><text fill="#000000" font-family="sans-serif" font-size="14" lengthAdjust="spacing" textLength="57.9072" x="311" y="555.9951">systems</text></g><!--entity controller::pn_driver--><g id="elem_controller::pn_driver"><rect fill="#F1F1F1" height="46.2969" rx="2.5" ry="2.5" style="stroke:#181818;stroke-width:0.5;" width="105.9463" x="292" y="604"/><rect fill="#F1F1F1" height="10" style="stroke:#181818;stroke-width:0.5;" width="15" x="377.9463" y="609"/><rect fill="#F1F1F1" height="2" style="stroke:#181818;stroke-width:0.5;" width="4" x="375.9463" y="611"/><rect fill="#F1F1F1" height="2" style="stroke:#181818;stroke-width:0.5;" width="4" x="375.9463" y="615"/><text fill="#000000" font-family="sans-serif" font-size="14" lengthAdjust="spacing" textLength="65.9463" x="307" y="636.9951">pn_driver</text></g><!--entity controller::simulation--><g id="elem_controller::simulation"><rect fill="#F1F1F1" height="46.2969" rx="2.5" ry="2.5" style="stroke:#181818;stroke-width:0.5;" width="112.9805" x="288.5" y="685"/><rect fill="#F1F1F1" height="10" style="stroke:#181818;stroke-width:0.5;" width="15" x="381.4805" y="690"/><rect fill="#F1F1F1" height="2" style="stroke:#181818;stroke-width:0.5;" width="4" x="379.4805" y="692"/><rect fill="#F1F1F1" height="2" style="stroke:#181818;stroke-width:0.5;" width="4" x="379.4805" y="696"/><text fill="#000000" font-family="sans-serif" font-size="14" lengthAdjust="spacing" textLength="72.9805" x="303.5" y="717.9951">simulation</text></g><!--entity calibration--><g id="elem_calibration"><rect fill="#F1F1F1" height="46.2969" rx="2.5" ry="2.5" style="stroke:#181818;stroke-width:0.5;" width="114.0947" x="288" y="1454"/><rect fill="#F1F1F1" height="10" style="stroke:#181818;stroke-width:0.5;" width="15" x="382.0947" y="1459"/><rect fill="#F1F1F1" height="2" style="stroke:#181818;stroke-width:0.5;" width="4" x="380.0947" y="1461"/><rect fill="#F1F1F1" height="2" style="stroke:#181818;stroke-width:0.5;" width="4" x="380.0947" y="1465"/><text fill="#000000" font-family="sans-serif" font-size="14" lengthAdjust="spacing" textLength="74.0947" x="303" y="1486.9951">calibration</text></g><!--entity weld::sequence::calibration--><g id="elem_weld::sequence::calibration"><rect fill="#F1F1F1" height="46.2969" rx="2.5" ry="2.5" style="stroke:#181818;stroke-width:0.5;" width="114.0947" x="530" y="1374"/><rect fill="#F1F1F1" height="10" style="stroke:#181818;stroke-width:0.5;" width="15" x="624.0947" y="1379"/><rect fill="#F1F1F1" height="2" style="stroke:#181818;stroke-width:0.5;" width="4" x="622.0947" y="1381"/><rect fill="#F1F1F1" height="2" style="stroke:#181818;stroke-width:0.5;" width="4" x="622.0947" y="1385"/><text fill="#000000" font-family="sans-serif" font-size="14" lengthAdjust="spacing" textLength="74.0947" x="545" y="1406.9951">calibration</text></g><!--entity weld::sequence::tests--><g id="elem_weld::sequence::tests"><rect fill="#F1F1F1" height="46.2969" rx="2.5" ry="2.5" style="stroke:#181818;stroke-width:0.5;" width="74.1797" x="550" y="1455"/><rect fill="#F1F1F1" height="10" style="stroke:#181818;stroke-width:0.5;" width="15" x="604.1797" y="1460"/><rect fill="#F1F1F1" height="2" style="stroke:#181818;stroke-width:0.5;" width="4" x="602.1797" y="1462"/><rect fill="#F1F1F1" height="2" style="stroke:#181818;stroke-width:0.5;" width="4" x="602.1797" y="1466"/><text fill="#000000" font-family="sans-serif" font-size="14" lengthAdjust="spacing" textLength="34.1797" x="565" y="1487.9951">tests</text></g><!--entity weld::sequence::tracking--><g id="elem_weld::sequence::tracking"><rect fill="#F1F1F1" height="46.2969" rx="2.5" ry="2.5" style="stroke:#181818;stroke-width:0.5;" width="97.2783" x="538.5" y="1293"/><rect fill="#F1F1F1" height="10" style="stroke:#181818;stroke-width:0.5;" width="15" x="615.7783" y="1298"/><rect fill="#F1F1F1" height="2" style="stroke:#181818;stroke-width:0.5;" width="4" x="613.7783" y="1300"/><rect fill="#F1F1F1" height="2" style="stroke:#181818;stroke-width:0.5;" width="4" x="613.7783" y="1304"/><text fill="#000000" font-family="sans-serif" font-size="14" lengthAdjust="spacing" textLength="57.2783" x="553.5" y="1325.9951">tracking</text></g><!--entity zevs::adapter--><g id="elem_zevs::adapter"><rect fill="#F1F1F1" height="46.2969" rx="2.5" ry="2.5" style="stroke:#181818;stroke-width:0.5;" width="94.79" x="67" y="981"/><rect fill="#F1F1F1" height="10" style="stroke:#181818;stroke-width:0.5;" width="15" x="141.79" y="986"/><rect fill="#F1F1F1" height="2" style="stroke:#181818;stroke-width:0.5;" width="4" x="139.79" y="988"/><rect fill="#F1F1F1" height="2" style="stroke:#181818;stroke-width:0.5;" width="4" x="139.79" y="992"/><text fill="#000000" font-family="sans-serif" font-size="14" lengthAdjust="spacing" textLength="54.79" x="82" y="1013.9951">adapter</text></g><!--reverse link configuration to components::recipe--><g id="link_configuration_components::recipe"><path codeLine="46" d="M597.3926,892.8999 C613.8826,940.5399 656.19,1043.89 732,1100 C735.305,1102.4463 738.8947,1104.5786 742.6517,1106.4372 C743.5909,1106.9018 744.5406,1107.3494 745.4989,1107.7804 C745.9781,1107.996 746.4594,1108.2074 746.9426,1108.4147 C747.1843,1108.5184 747.4264,1108.6211 747.6689,1108.7228 " fill="none" id="configuration-backto-components::recipe" style="stroke:#181818;stroke-width:1.0;"/><polygon fill="#181818" points="595.43,887.23,594.5939,897.0433,597.0655,891.955,602.1538,894.4265,595.43,887.23" style="stroke:#181818;stroke-width:1.0;"/></g><!--reverse link components::scanner to configuration--><g id="link_components::scanner_configuration"><path codeLine="47" d="M418.1026,1053.6314 C428.5042,1050.8124 432.99,1048.455 442,1043 C505.97,1004.27 553.48,926.25 574.33,887.27 " fill="none" id="components::scanner-backto-configuration" style="stroke:#181818;stroke-width:1.0;"/><polygon fill="#181818" points="412.3116,1055.2009,422.0445,1056.7074,417.1375,1053.893,419.9518,1048.9859,412.3116,1055.2009" style="stroke:#181818;stroke-width:1.0;"/></g><!--reverse link components::scanner to components::recipe::msg--><g id="link_components::scanner_components::recipe::msg"><path codeLine="48" d="M418.7645,1061.8425 C423.0936,1061.833 421.5819,1061.8363 426.2135,1061.8262 C435.4768,1061.806 445.3137,1061.7845 455.5979,1061.762 C476.1662,1061.717 498.5234,1061.6681 521.6588,1061.6175 C614.2,1061.415 719.19,1061.185 771.93,1061.07 " fill="none" id="components::scanner-backto-components::recipe::msg" style="stroke:#181818;stroke-width:1.0;"/><polygon fill="#181818" points="412.7646,1061.8556,421.7733,1065.8359,417.7645,1061.8446,421.7558,1057.8359,412.7646,1061.8556" style="stroke:#181818;stroke-width:1.0;"/></g><!--reverse link components::kinematics to weld--><g id="link_components::kinematics_weld"><path codeLine="86" d="M359.749,1148.7663 C380.859,1193.9663 423.47,1291.72 442,1384 C445.68,1402.32 438.05,1537.63 450,1552 C452.4425,1554.9375 455.0992,1557.6347 457.9346,1560.11 C459.3522,1561.3477 460.8145,1562.5299 462.3171,1563.6589 C463.0683,1564.2234 463.8296,1564.7747 464.6004,1565.3129 C464.9859,1565.582 465.3736,1565.8479 465.7637,1566.1105 " fill="none" id="components::kinematics-backto-weld" style="stroke:#181818;stroke-width:1.0;"/><polygon fill="#181818" points="357.21,1143.33,357.3942,1153.1771,359.3258,1147.8603,364.6427,1149.7919,357.21,1143.33" style="stroke:#181818;stroke-width:1.0;"/></g><!--reverse link components::kinematics to weld::sequence--><g id="link_components::kinematics_weld::sequence"><path codeLine="87" d="M359.4701,1148.4451 C380.3201,1193.4951 422.84,1291.6 442,1384 C445.01,1398.5 439.95,1506.13 450,1517 C455.0975,1522.515 465.9225,1526.4663 479.3473,1529.2894 C486.0598,1530.7009 493.4221,1531.8305 501.0435,1532.7324 C501.9962,1532.8452 502.9529,1532.9544 503.9129,1533.0601 C504.3929,1533.113 504.8738,1533.165 505.3553,1533.2161 " fill="none" id="components::kinematics-backto-weld::sequence" style="stroke:#181818;stroke-width:1.0;"/><polygon fill="#181818" points="356.95,1143,357.1001,1152.8477,359.0501,1147.5376,364.3602,1149.4876,356.95,1143" style="stroke:#181818;stroke-width:1.0;"/></g><!--reverse link components::kinematics to weld::sequence::calibration--><g id="link_components::kinematics_weld::sequence::calibration"><path codeLine="88" d="M350.5514,1148.9072 C358.9614,1196.1572 383.72,1298.67 450,1357 C471.99,1376.35 502.92,1386.35 529.73,1391.52 " fill="none" id="components::kinematics-backto-weld::sequence::calibration" style="stroke:#181818;stroke-width:1.0;"/><polygon fill="#181818" points="349.5,1143,347.139,1152.5617,350.3762,1147.9226,355.0152,1151.1598,349.5,1143" style="stroke:#181818;stroke-width:1.0;"/></g><!--reverse link components::kinematics to weld::sequence::tests--><g id="link_components::kinematics_weld::sequence::tests"><path codeLine="89" d="M358.6128,1148.6665 C378.2328,1194.0065 418.84,1292.52 442,1384 C447.95,1407.52 434.08,1419.69 450,1438 C474.79,1466.5 518.75,1475.21 549.98,1477.61 " fill="none" id="components::kinematics-backto-weld::sequence::tests" style="stroke:#181818;stroke-width:1.0;"/><polygon fill="#181818" points="356.23,1143.16,356.1332,1153.0084,358.2157,1147.7488,363.4753,1149.8312,356.23,1143.16" style="stroke:#181818;stroke-width:1.0;"/></g><!--reverse link components::kinematics to weld::sequence::tracking--><g id="link_components::kinematics_weld::sequence::tracking"><path codeLine="90" d="M379.1168,1147.0457 C425.3068,1184.7757 511.4,1255.07 557.56,1292.78 " fill="none" id="components::kinematics-backto-weld::sequence::tracking" style="stroke:#181818;stroke-width:1.0;"/><polygon fill="#181818" points="374.47,1143.25,378.9097,1152.0414,378.3423,1146.4131,383.9707,1145.8457,374.47,1143.25" style="stroke:#181818;stroke-width:1.0;"/></g><!--reverse link components::scanner to weld--><g id="link_components::scanner_weld"><path codeLine="91" d="M417.9612,1052.93 C418.6045,1053.0287 414.2701,1052.4453 414.9084,1052.5609 C425.1225,1054.4112 434.6625,1058.475 442,1066 C460.85,1085.33 433.06,1530.97 450,1552 C452.3963,1554.975 455.0124,1557.7051 457.8124,1560.2091 C459.2124,1561.4611 460.6583,1562.6566 462.1457,1563.798 C462.8893,1564.3687 463.6434,1564.9258 464.4072,1565.4697 C464.7891,1565.7416 465.1735,1566.0103 465.5602,1566.2756 " fill="none" id="components::scanner-backto-weld" style="stroke:#181818;stroke-width:1.0;"/><polygon fill="#181818" points="412.0192,1052.0979,420.3775,1057.3074,416.9709,1052.7913,421.487,1049.3848,412.0192,1052.0979" style="stroke:#181818;stroke-width:1.0;"/></g><!--reverse link components::scanner to weld::sequence--><g id="link_components::scanner_weld::sequence"><path codeLine="92" d="M417.9526,1052.9383 C418.5959,1053.0369 414.2616,1052.4538 414.9,1052.5694 C425.115,1054.4188 434.6575,1058.48 442,1066 C459.51,1083.93 433.38,1498.24 450,1517 C454.98,1522.6225 465.7456,1526.6281 479.1477,1529.4722 C485.8487,1530.8942 493.2088,1532.0259 500.8344,1532.924 C501.7876,1533.0363 502.7449,1533.1449 503.7056,1533.25 C504.186,1533.3025 504.6672,1533.3542 505.1491,1533.405 C505.3901,1533.4304 505.6313,1533.4556 505.8726,1533.4805 " fill="none" id="components::scanner-backto-weld::sequence" style="stroke:#181818;stroke-width:1.0;"/><polygon fill="#181818" points="412.0106,1052.1065,420.3692,1057.3155,416.9623,1052.7996,421.4782,1049.3928,412.0106,1052.1065" style="stroke:#181818;stroke-width:1.0;"/></g><!--reverse link common::data to configuration--><g id="link_common::data_configuration"><path codeLine="94" d="M156.6084,295.8976 C222.8884,297.4176 361.02,310.19 442,390 C573.4,519.49 585.7,764.76 586.23,840.88 " fill="none" id="common::data-backto-configuration" style="stroke:#181818;stroke-width:1.0;"/><polygon fill="#181818" points="150.61,295.76,159.5159,299.9653,155.6087,295.8746,159.6993,291.9674,150.61,295.76" style="stroke:#181818;stroke-width:1.0;"/></g><!--reverse link common::file to configuration--><g id="link_common::file_configuration"><path codeLine="95" d="M151.4449,374.7121 C214.5549,372.1021 356.42,375.38 442,452 C561.54,559.02 581.85,770.88 585.29,840.92 " fill="none" id="common::file-backto-configuration" style="stroke:#181818;stroke-width:1.0;"/><polygon fill="#181818" points="145.45,374.96,154.6076,378.5847,150.4457,374.7534,154.277,370.5915,145.45,374.96" style="stroke:#181818;stroke-width:1.0;"/></g><!--reverse link common::joint_tracking to components::scanner--><g id="link_common::joint_tracking_components::scanner"><path codeLine="96" d="M125.0237,567.9565 C145.7037,631.6165 201.18,808.73 230,965 C233.16,982.14 226.15,1030.23 238,1043 C246.01,1051.635 256.4969,1057.1706 267.7566,1060.6094 C270.5715,1061.4691 273.4347,1062.1977 276.3196,1062.8109 C276.6802,1062.8876 277.0412,1062.9624 277.4024,1063.0355 C277.583,1063.0721 277.7637,1063.1082 277.9445,1063.1438 " fill="none" id="common::joint_tracking-backto-components::scanner" style="stroke:#181818;stroke-width:1.0;"/><polygon fill="#181818" points="123.17,562.25,122.1463,572.0455,124.7148,567.0054,129.7549,569.5739,123.17,562.25" style="stroke:#181818;stroke-width:1.0;"/></g><!--reverse link common::scanner to configuration--><g id="link_common::scanner_configuration"><path codeLine="97" d="M168.7218,450.9687 C237.7518,444.2487 360.79,442.9 442,507 C551.38,593.33 578.11,775.85 584.26,840.61 " fill="none" id="common::scanner-backto-configuration" style="stroke:#181818;stroke-width:1.0;"/><polygon fill="#181818" points="162.75,451.55,172.0952,454.6592,167.7265,451.0655,171.3201,446.6968,162.75,451.55" style="stroke:#181818;stroke-width:1.0;"/></g><!--reverse link common::scanner to components::scanner--><g id="link_common::scanner_components::scanner"><path codeLine="98" d="M168.5616,463.0656 C192.8416,467.7456 214.61,476.65 230,498 C247.71,522.56 218.4,1019.92 238,1043 C241.8125,1047.49 250.1681,1050.9206 260.5998,1053.5414 C265.8157,1054.8518 271.5506,1055.9597 277.4961,1056.8964 " fill="none" id="common::scanner-backto-components::scanner" style="stroke:#181818;stroke-width:1.0;"/><polygon fill="#181818" points="162.67,461.93,170.7503,467.5611,167.5796,462.8763,172.2644,459.7057,162.67,461.93" style="stroke:#181818;stroke-width:1.0;"/></g><!--reverse link controller to configuration--><g id="link_controller_configuration"><path codeLine="100" d="M371.4741,776.4062 C383.3204,781.2436 394.055,785.6269 412.4575,793.1413 C449.2625,808.17 494.52,826.65 529.59,840.97 " fill="none" id="controller-backto-configuration" style="stroke:#181818;stroke-width:1.0;"/><polygon fill="#181818" points="365.9194,774.138,372.7393,781.2435,370.5483,776.0282,375.7636,773.8372,365.9194,774.138" style="stroke:#181818;stroke-width:1.0;"/></g><!--reverse link slice_translator to configuration--><g id="link_slice_translator_configuration"><path codeLine="102" d="M360.0581,1386.4874 C360.4431,1385.5973 359.0259,1388.8744 359.4267,1387.9474 C361.0302,1384.2395 362.7599,1380.2397 364.6062,1375.9704 C368.2987,1367.4317 372.4575,1357.8147 377.0056,1347.2973 C395.1981,1305.2278 419.62,1248.7519 445.3475,1189.2563 C496.8025,1070.265 553.48,939.195 575.99,887.14 " fill="none" id="slice_translator-backto-configuration" style="stroke:#181818;stroke-width:1.0;"/><polygon fill="#181818" points="357.6765,1391.9945,364.9203,1385.3216,359.6612,1387.4053,357.5775,1382.1462,357.6765,1391.9945" style="stroke:#181818;stroke-width:1.0;"/></g><!--reverse link calibration to weld--><g id="link_calibration_weld"><path codeLine="103" d="M393.999,1503.1434 C411.659,1513.8634 426.44,1524.55 442,1540 C446.55,1544.52 444.73,1548.34 450,1552 C453.1381,1554.1788 456.4049,1556.2105 459.7726,1558.1052 C461.4564,1559.0526 463.1655,1559.9656 464.8963,1560.8456 C465.1127,1560.9556 465.3294,1561.0651 465.5464,1561.1741 " fill="none" id="calibration-backto-weld" style="stroke:#181818;stroke-width:1.0;"/><polygon fill="#181818" points="388.87,1500.03,394.4879,1508.1195,393.1442,1502.6245,398.6391,1501.2808,388.87,1500.03" style="stroke:#181818;stroke-width:1.0;"/></g><!--reverse link calibration to weld::sequence--><g id="link_calibration_weld::sequence"><path codeLine="104" d="M404.5393,1502.2217 C420.6793,1508.5217 433.05,1512.62 450,1517 C464.5425,1520.76 480.1638,1523.82 495.452,1526.2969 C497.3631,1526.6065 499.2689,1526.907 501.1668,1527.1986 C502.1157,1527.3444 503.0627,1527.488 504.0073,1527.6294 C504.4796,1527.7001 504.9513,1527.7702 505.4224,1527.8398 " fill="none" id="calibration-backto-weld::sequence" style="stroke:#181818;stroke-width:1.0;"/><polygon fill="#181818" points="398.95,1500.04,405.8795,1507.0387,403.6077,1501.8581,408.7884,1499.5863,398.95,1500.04" style="stroke:#181818;stroke-width:1.0;"/></g><!--reverse link zevs to components::scanner--><g id="link_zevs_components::scanner"><path codeLine="106" d="M124.8556,1073.9805 C125.1433,1074.2033 121.2123,1070.972 121.5223,1071.1907 C122.7625,1072.0654 124.1798,1072.9065 125.7606,1073.7139 C132.0838,1076.9436 141.0225,1079.635 151.705,1081.7881 C173.07,1086.0944 201.41,1088.2475 229.75,1088.2475 C258.09,1088.2475 286.43,1086.0944 307.795,1081.7881 C318.4775,1079.635 327.4163,1076.9436 333.7394,1073.7139 C335.3202,1072.9065 336.7375,1072.0654 337.9777,1071.1907 C338.2877,1070.972 338.5867,1070.7513 338.8744,1070.5284 C339.0183,1070.4169 339.1593,1070.305 339.2975,1070.1925 C339.3666,1070.1362 339.4349,1070.0799 339.5026,1070.0233 " fill="none" id="zevs-backto-components::scanner" style="stroke:#181818;stroke-width:1.0;"/><polygon fill="#181818" points="120.2025,1070.1925,124.6568,1078.9765,124.0801,1073.3491,129.7075,1072.7724,120.2025,1070.1925" style="stroke:#181818;stroke-width:1.0;"/></g><!--reverse link zevs to components::scanner--><g id="link_zevs_components::scanner"><path codeLine="110" d="M192.6549,1062 C205.6825,1062 215.9544,1062 229.7925,1062 C243.6306,1062 257.468,1062 270.4925,1062 C272.1205,1062 273.7359,1062 275.337,1062 C276.1375,1062 276.9345,1062 277.7277,1062 " fill="none" id="zevs-backto-components::scanner-1" style="stroke:#181818;stroke-width:1.0;"/><polygon fill="#181818" points="186.6549,1062,195.6549,1066,191.6549,1062,195.6549,1058,186.6549,1062" style="stroke:#181818;stroke-width:1.0;"/></g><!--reverse link zevs to components::scanner--><g id="link_zevs_components::scanner"><path codeLine="113" d="M192.8468,1036.9686 C206.1449,1035.892 215.58,1035.7525 229.75,1035.7525 C243.92,1035.7525 258.09,1036.2908 271.3881,1037.3673 C273.0504,1037.5019 274.699,1037.6449 276.3323,1037.7963 C276.7407,1037.8341 277.1481,1037.8725 277.5544,1037.9114 " fill="none" id="zevs-backto-components::scanner-2" style="stroke:#181818;stroke-width:1.0;"/><polygon fill="#181818" points="186.8678,1037.4698,196.1705,1040.704,191.8503,1037.0521,195.5021,1032.732,186.8678,1037.4698" style="stroke:#181818;stroke-width:1.0;"/></g><!--reverse link zevs to controller--><g id="link_zevs_controller"><path codeLine="107" d="M119.1728,1075.854 C119.6214,1076.8371 118.6217,1073.6833 119.1981,1074.627 C121.5036,1078.4018 124.801,1081.8518 128.847,1084.8948 C136.9391,1090.9809 148.0256,1095.4394 160.1613,1097.6138 C184.4325,1101.9625 212.9,1097.175 230,1078 C241.77,1064.8 231.26,935.35 238,919 C251.385,886.54 277.73,857.1425 300.8063,831.485 C312.3444,818.6563 323.0653,806.7625 330.9405,795.8884 C334.878,790.4514 338.1042,785.2693 340.3653,780.3527 C340.9306,779.1235 341.4355,777.911 341.8762,776.7152 C342.0966,776.1173 342.3008,775.5236 342.4886,774.9341 C342.5824,774.6393 342.6721,774.3456 342.7576,774.053 " fill="none" id="zevs-backto-controller" style="stroke:#181818;stroke-width:1.0;"/><polygon fill="#181818" points="117.0356,1070.2476,116.5038,1080.0821,118.8166,1074.9196,123.9791,1077.2324,117.0356,1070.2476" style="stroke:#181818;stroke-width:1.0;"/></g><!--reverse link zevs to controller--><g id="link_zevs_controller"><path codeLine="111" d="M191.9544,1063.8392 C192.7357,1063.699 188.1912,1064.4781 188.9697,1064.322 C192.0833,1063.6974 195.1703,1062.9436 198.2011,1062.0423 C210.3244,1058.4375 221.55,1052.475 230,1043 C241.77,1029.8 231.26,900.35 238,884 C251.225,851.92 277.11,822.8325 299.9888,801.5638 C311.4281,790.9294 322.1159,782.2497 330.0939,776.128 C330.5925,775.7454 331.0806,775.3727 331.5575,775.0103 C331.796,774.829 332.0317,774.6503 332.2646,774.4742 C332.3811,774.3861 332.4968,774.2987 332.6119,774.2119 " fill="none" id="zevs-backto-controller-1" style="stroke:#181818;stroke-width:1.0;"/><polygon fill="#181818" points="186.0436,1064.8701,195.5971,1067.2643,190.9693,1064.011,194.2225,1059.3832,186.0436,1064.8701" style="stroke:#181818;stroke-width:1.0;"/></g><!--reverse link zevs to controller--><g id="link_zevs_controller"><path codeLine="114" d="M191.87,1029.6464 C195.0237,1028.819 194.6978,1028.742 197.7698,1027.7092 C210.0581,1023.5781 221.45,1017.5875 230,1008 C241.77,994.8 231.26,865.35 238,849 C244.6925,832.77 254.625,817.3056 265.7689,803.7725 C271.3409,797.0059 277.2157,790.7222 283.1397,785.067 C286.1018,782.2393 289.0761,779.5688 292.0311,777.0737 C292.7699,776.4499 293.5074,775.8371 294.2432,775.2355 C294.6112,774.9347 294.9786,774.6367 295.3456,774.3416 " fill="none" id="zevs-backto-controller-2" style="stroke:#181818;stroke-width:1.0;"/><polygon fill="#181818" points="186.0463,1031.0904,195.7444,1032.8069,190.8994,1029.8871,193.8192,1025.042,186.0463,1031.0904" style="stroke:#181818;stroke-width:1.0;"/></g><!--reverse link zevs to components::kinematics--><g id="link_zevs_components::kinematics"><path codeLine="108" d="M152.9838,1071.5154 C153.4077,1071.623 148.6527,1070.4159 149.0829,1070.5251 C150.8036,1070.962 152.5742,1071.4114 154.3907,1071.8725 C161.6567,1073.7169 169.6569,1075.7475 178.1375,1077.9 C212.06,1086.51 253.67,1097.07 286.73,1105.46 " fill="none" id="zevs-backto-components::kinematics" style="stroke:#181818;stroke-width:1.0;"/><polygon fill="#181818" points="147.1683,1070.0391,154.9074,1076.1306,152.0146,1071.2694,156.8758,1068.3765,147.1683,1070.0391" style="stroke:#181818;stroke-width:1.0;"/></g><!--reverse link zevs to components::recipe--><g id="link_zevs_components::recipe"><path codeLine="109" d="M116.4894,1076.6513 C116.567,1077.7691 116.296,1073.8149 116.3886,1075.1154 C116.574,1077.7164 116.7898,1080.6766 117.0371,1083.971 C118.0266,1097.1483 119.5216,1115.672 121.5977,1137.9395 C125.7497,1182.4747 132.2256,1241.9856 141.6288,1303.6538 C160.435,1426.99 190.95,1558.955 238,1597 C266.4,1619.96 697.61,1622.28 724,1600 C765.11,1565.305 785.6125,1446.655 795.8363,1335.8875 C800.9481,1280.5038 803.4903,1227.0906 804.7539,1187.1278 C805.3857,1167.1464 805.6979,1150.5276 805.8517,1138.7063 C805.8902,1135.751 805.9188,1133.0955 805.94,1130.7623 C805.9506,1129.5957 805.9594,1128.5096 805.9666,1127.507 " fill="none" id="zevs-backto-components::recipe" style="stroke:#181818;stroke-width:1.0;"/><polygon fill="#181818" points="116.0765,1070.6655,112.7054,1079.9195,116.4206,1075.6537,120.6864,1079.3689,116.0765,1070.6655" style="stroke:#181818;stroke-width:1.0;"/></g><!--reverse link zevs to weld--><g id="link_zevs_weld"><path codeLine="112" d="M117.3561,1076.5949 C117.4215,1077.1006 116.8187,1072.4188 116.8894,1072.9624 C117.1724,1075.1368 117.4981,1077.6119 117.8661,1080.3669 C119.338,1091.3871 121.4867,1106.887 124.2822,1125.542 C129.8731,1162.8522 138.0512,1212.7831 148.5775,1264.7388 C169.63,1368.65 200.075,1480.66 238,1516 C295.2,1569.295 381.2925,1586.4475 453.5338,1590.2013 C455.7913,1590.3186 458.0353,1590.4228 460.2645,1590.5146 C461.3791,1590.5605 462.49,1590.6033 463.597,1590.6431 C464.1505,1590.663 464.703,1590.6822 465.2546,1590.7006 " fill="none" id="zevs-backto-weld" style="stroke:#181818;stroke-width:1.0;"/><polygon fill="#181818" points="116.5892,1070.6442,113.7724,1080.0816,117.2283,1075.6031,121.7068,1079.059,116.5892,1070.6442" style="stroke:#181818;stroke-width:1.0;"/></g><!--SRC=[bLNBSjmW4Bpp5IhVzmSeNtFBpRwx268LR0IAGEjAKlxty5g9OK2E3wgIfhk7KGyCIbpTuComokcd6qQv2kwaqOHmCoz62-s61pQonGSltApYOVXBXg40Kv3P8Rn44C0ZSop3ysmqfI6GQH-aPb-b4e0T0btsgv7QlRYLyJUf9w23K3U3vKnhiG9fZksQy7m0FnAp4DMUA3DDTKKvXXtwjGdhMbHA8tHUI7grTtt-n4tILpbjAmkzpTmY4kdHdKBZZHEpXtcTdD83QYehLtSPTBOGIBrihaUdDCBT7fhDdQeJ3bo4vVejBnU14gGmBdQsKuTBgSVmGgNHZvTBGrZMK_YKo8NybDUi1cqOxLQZrDwS-wUlkkhXR-l4R2kQNpF5ctrVzCkuoXjAJkcEjFUBd3S5jkQnt0vb9VmVgoGNuPXhwracBLm7qM5WIlueZyBntLpaNQWn4iDBdSmAVqWr5pl1rvn3UElKAqC-fNKbhUtk_4YmJNL4-hfoJ29fFIYn2t_4BIqRNceNuWsH-nvmIdEaOIYS7s7lXce-muzg_vy93FsAB3hv9K7sZ_IE9_h56Yp-Zu2h4Wy1S3VsuUeAVBoqPWUfRxr-ljwqkMSYnJJ1MGWwbOsLYkr_cDO8bcQbxVRjvelvRipIBQ_DkrUSuIV3tuH3EOxkd_FoD3_bm7e0gLzCT295d-LyqWJCsPF-0m00]--></g></svg>